<?xml version="1.0" standalone="no"?>
<!DOCTYPE svg PUBLIC "-//W3C//DTD SVG 20010904//EN"
 "http://www.w3.org/TR/2001/REC-SVG-20010904/DTD/svg10.dtd">
<svg version="1.0" xmlns="http://www.w3.org/2000/svg"
 width="398.000000pt" height="398.000000pt" viewBox="0 0 398.000000 398.000000"
 preserveAspectRatio="xMidYMid meet">
<metadata>
Created by potrace 1.14, written by Peter Selinger 2001-2017
</metadata>
<g transform="translate(0.000000,398.000000) scale(0.100000,-0.100000)"
fill="#000000" stroke="none">
<path d="M1805 3448 c-49 -10 -125 -39 -144 -53 -7 -5 -36 -32 -63 -59 -49
-49 -51 -50 -109 -49 -96 1 -133 -28 -197 -157 -26 -53 -52 -72 -105 -79 l-39
-6 21 -27 c19 -24 20 -58 2 -58 -10 0 -31 -66 -35 -105 -1 -16 1 -46 5 -65 5
-19 4 -54 -2 -78 -10 -46 2 -114 26 -142 7 -8 15 -35 19 -59 4 -25 18 -66 31
-93 13 -26 22 -48 18 -48 -3 0 0 -6 6 -13 7 -9 10 -79 10 -203 0 -104 2 -200
6 -214 3 -14 8 -44 11 -66 2 -23 7 -53 9 -65 3 -13 8 -40 11 -59 7 -37 64
-163 76 -168 5 -2 8 -9 8 -16 0 -6 13 -27 30 -46 16 -19 29 -39 30 -43 0 -5
20 -28 44 -53 25 -24 42 -44 39 -44 -3 0 13 -14 36 -30 56 -41 125 -63 194
-62 31 0 57 -2 57 -6 0 -6 -110 -43 -125 -42 -3 0 -19 -7 -35 -15 -16 -8 -32
-15 -35 -14 -17 3 -65 -14 -65 -23 0 -6 -3 -8 -6 -5 -8 8 -49 -37 -69 -75 -8
-14 -17 -48 -20 -75 -3 -26 -7 -68 -10 -93 -3 -25 -7 -67 -9 -95 -4 -44 -13
-133 -21 -205 -22 -205 -20 -220 30 -238 56 -21 65 -36 65 -110 0 -37 -4 -83
-10 -101 -5 -19 -12 -70 -16 -113 l-6 -78 643 2 644 3 -1 75 c0 41 -3 104 -7
140 -3 36 -9 95 -13 133 -4 41 -3 67 3 67 6 0 23 11 39 25 16 14 32 25 37 25
18 0 9 39 -83 350 -28 96 -53 182 -55 191 -16 73 -34 109 -75 150 -25 25 -52
46 -60 47 -8 1 -93 21 -189 46 -96 25 -178 43 -182 40 -10 -5 -17 17 -25 73
l-6 48 44 22 c46 24 75 42 94 58 77 63 103 90 121 127 11 24 27 58 36 75 8 18
18 46 22 63 6 26 11 30 39 30 18 0 56 12 86 27 57 28 160 124 160 148 0 8 4
15 8 15 13 0 42 91 46 145 2 28 -2 68 -9 89 -13 38 -13 41 15 73 31 34 51 91
45 123 -3 16 2 20 26 20 16 0 29 5 29 10 0 6 -4 10 -10 10 -16 0 -12 57 5 74
8 8 15 19 15 24 0 5 7 23 15 38 27 52 16 139 -23 185 -10 13 -11 29 -4 68 12
67 -10 112 -79 164 -40 28 -47 37 -30 37 29 0 26 12 -8 31 -16 9 -31 29 -35
45 -18 69 -96 143 -174 164 -24 6 -40 15 -37 21 8 12 -4 49 -16 49 -5 0 -9 -6
-9 -14 0 -14 -21 -26 -44 -26 -7 0 -40 22 -74 49 -86 69 -151 88 -235 66 -41
-10 -55 -10 -105 7 -65 21 -188 29 -247 16z"/>
</g>
</svg>
