<?xml version="1.0" encoding="UTF-8"?>
<svg id="Camada_1" data-name="Camada 1" xmlns="http://www.w3.org/2000/svg" viewBox="0 0 200 500">
  <defs>
    <style>
      .cls-1 {
        fill: #8bea8f;
      }

      .cls-2 {
        fill: #c0f2c0;
      }

      .cls-3 {
        fill: #fff;
      }

      .cls-4 {
        fill: #1c1c1c;
      }

      .cls-5 {
        fill: #ff9494;
      }

      .cls-6 {
        fill: #f7f47c;
      }

      .cls-7 {
        fill: #f9e153;
      }

      .cls-8 {
        fill: #e56565;
      }
    </style>
  </defs>
  <g>
    <circle class="cls-1" cx="99.68" cy="413.93" r="72.21"/>
    <path class="cls-1" d="M169.39,413.93c-.03,14.48-4.53,28.61-12.9,40.43s-19.63,20.24-32.7,25.01c-13.79,5.03-29,5.65-43.13,1.65-13.61-3.85-25.77-11.88-34.79-22.75s-14.61-24.64-15.69-38.75,2.27-29.15,9.81-41.63,18.16-21.66,30.95-27.51,28.33-7.69,42.51-4.82c13.92,2.82,26.73,9.88,36.56,20.12,9.86,10.27,16.35,23.44,18.58,37.5,.56,3.55,.8,7.15,.81,10.75,0,3.22,5.01,3.22,5,0-.04-15.4-4.8-30.67-13.77-43.22-8.8-12.31-21.13-21.76-35.34-26.98s-30.97-5.94-45.95-1.71c-14.48,4.1-27.64,12.66-37.21,24.29s-15.76,26.61-16.94,42.03,2.56,31.09,10.58,44.29c7.75,12.75,19.35,23.15,32.96,29.3,14.4,6.51,30.57,8.32,46.06,5.18,14.75-2.99,28.49-10.65,38.88-21.52,10.43-10.91,17.51-24.99,19.81-39.93,.6-3.89,.92-7.8,.93-11.74,0-3.22-4.99-3.22-5,0Z"/>
  </g>
  <g>
    <circle class="cls-1" cx="99.74" cy="413.93" r="66.67"/>
    <path class="cls-2" d="M163.91,413.93c-.03,13.35-4.18,26.37-11.91,37.26-7.41,10.45-18.11,18.63-30.15,23.01-12.67,4.6-26.63,5.15-39.6,1.49-12.54-3.54-23.75-10.95-32.07-20.98-8.32-10.03-13.44-22.72-14.42-35.71s2.1-26.75,9.02-38.21,16.74-19.97,28.53-25.36c12.13-5.55,26.11-7.07,39.17-4.41s24.62,9.13,33.67,18.59c9.08,9.49,15.03,21.65,17.05,34.61,.5,3.21,.7,6.46,.71,9.71s5.01,3.22,5,0c-.04-14.22-4.42-28.32-12.69-39.92-8.15-11.42-19.56-20.2-32.73-25.06-13.59-5.01-28.81-5.53-42.74-1.56-13.36,3.81-25.5,11.74-34.32,22.47s-14.55,24.58-15.66,38.82,2.35,28.81,9.77,41.05c7.17,11.82,17.93,21.46,30.54,27.15,13.31,6,28.23,7.69,42.55,4.81,13.67-2.75,26.41-9.84,36.05-19.91s16.24-23.15,18.36-36.99c.55-3.6,.86-7.23,.87-10.87,0-3.22-4.99-3.22-5,0Z"/>
  </g>
  <g>
    <circle class="cls-7" cx="100" cy="250" r="72.21"/>
    <path class="cls-7" d="M169.71,250c-.03,14.48-4.53,28.61-12.9,40.43-8.04,11.35-19.63,20.24-32.7,25.01-13.79,5.03-29,5.65-43.13,1.65-13.61-3.85-25.77-11.88-34.79-22.75s-14.61-24.64-15.69-38.75,2.27-29.15,9.81-41.63,18.16-21.66,30.95-27.51,28.33-7.69,42.51-4.82,26.73,9.88,36.56,20.12c9.86,10.27,16.35,23.44,18.58,37.5,.56,3.55,.8,7.15,.81,10.75,0,3.22,5.01,3.22,5,0-.04-15.4-4.8-30.67-13.77-43.22-8.8-12.31-21.13-21.76-35.34-26.98s-30.97-5.94-45.95-1.71-27.64,12.66-37.21,24.29-15.76,26.61-16.94,42.03,2.56,31.09,10.58,44.29,19.35,23.15,32.96,29.3c14.4,6.51,30.57,8.32,46.06,5.18s28.49-10.65,38.88-21.52,17.51-24.99,19.81-39.93c.6-3.89,.92-7.8,.93-11.74,0-3.22-4.99-3.22-5,0Z"/>
  </g>
  <g>
    <circle class="cls-7" cx="99.74" cy="249.96" r="66.67"/>
    <path class="cls-6" d="M163.91,249.96c-.03,13.35-4.18,26.37-11.91,37.26-7.41,10.45-18.11,18.63-30.15,23.01-12.67,4.6-26.63,5.15-39.6,1.49-12.54-3.54-23.75-10.95-32.07-20.98-8.32-10.03-13.44-22.72-14.42-35.71s2.1-26.75,9.02-38.21c6.7-11.11,16.74-19.97,28.53-25.36s26.11-7.07,39.17-4.41,24.62,9.13,33.67,18.59c9.08,9.49,15.03,21.65,17.05,34.61,.5,3.21,.7,6.46,.71,9.71s5.01,3.22,5,0c-.04-14.22-4.42-28.32-12.69-39.92-8.15-11.42-19.56-20.2-32.73-25.06-13.59-5.01-28.81-5.53-42.74-1.56s-25.5,11.74-34.32,22.47c-9.07,11.03-14.55,24.58-15.66,38.82s2.35,28.81,9.77,41.05c7.17,11.82,17.93,21.46,30.54,27.15,13.31,6,28.23,7.69,42.55,4.81,13.67-2.75,26.41-9.84,36.05-19.91s16.24-23.15,18.36-36.99c.55-3.6,.86-7.23,.87-10.87,0-3.22-4.99-3.22-5,0Z"/>
  </g>
  <g>
    <circle class="cls-8" cx="99.68" cy="84" r="72.21"/>
    <path class="cls-8" d="M169.39,84c-.03,14.48-4.53,28.61-12.9,40.43s-19.63,20.24-32.7,25.01c-13.79,5.03-29,5.65-43.13,1.65s-25.77-11.88-34.79-22.75-14.61-24.64-15.69-38.75,2.27-29.15,9.81-41.63c7.28-12.04,18.16-21.66,30.95-27.51s28.33-7.69,42.51-4.82,26.73,9.88,36.56,20.12c9.86,10.27,16.35,23.44,18.58,37.5,.56,3.55,.8,7.15,.81,10.75,0,3.22,5.01,3.22,5,0-.04-15.4-4.8-30.67-13.77-43.22-8.8-12.31-21.13-21.76-35.34-26.98s-30.97-5.94-45.95-1.71-27.64,12.66-37.21,24.29c-9.82,11.93-15.76,26.61-16.94,42.03s2.56,31.09,10.58,44.29,19.35,23.15,32.96,29.3c14.4,6.51,30.57,8.32,46.06,5.18s28.49-10.65,38.88-21.52c10.43-10.91,17.51-24.99,19.81-39.93,.6-3.89,.92-7.8,.93-11.74,0-3.22-4.99-3.22-5,0Z"/>
  </g>
  <g>
    <circle class="cls-8" cx="99.74" cy="84" r="66.67"/>
    <path class="cls-5" d="M163.91,84c-.03,13.35-4.18,26.37-11.91,37.26s-18.11,18.63-30.15,23.01c-12.67,4.6-26.63,5.15-39.6,1.49s-23.75-10.95-32.07-20.98-13.44-22.72-14.42-35.71,2.1-26.75,9.02-38.21,16.74-19.97,28.53-25.36c12.13-5.55,26.11-7.07,39.17-4.41s24.62,9.13,33.67,18.59,15.03,21.65,17.05,34.61c.5,3.21,.7,6.46,.71,9.71s5.01,3.22,5,0c-.04-14.22-4.42-28.32-12.69-39.92-8.15-11.42-19.56-20.2-32.73-25.06s-28.81-5.53-42.74-1.56-25.5,11.74-34.32,22.47-14.55,24.58-15.66,38.82c-1.11,14.27,2.35,28.81,9.77,41.05s17.93,21.46,30.54,27.15c13.31,6,28.23,7.69,42.55,4.81s26.41-9.84,36.05-19.91,16.24-23.15,18.36-36.99c.55-3.6,.86-7.23,.87-10.87,0-3.22-4.99-3.22-5,0Z"/>
  </g>
  <path class="cls-4" d="M131.41,108.47c-5.26-6.38-12.75-11.26-20.66-13.57-12.11-3.53-25.14-.62-35.06,7-2.81,2.16-5.43,4.58-7.62,7.37-.83,1.06-1.04,2.5,0,3.54,.87,.87,2.7,1.07,3.54,0,4.6-5.87,10.68-10.34,17.83-12.7,10.98-3.63,22.61-1.19,31.8,5.61,.64,.47,1.47,1.14,2.32,1.89,.7,.61,1.38,1.25,2.04,1.91,.8,.8,1.57,1.63,2.29,2.5,.86,1.04,2.65,.89,3.54,0,1.03-1.03,.86-2.49,0-3.54h0Z"/>
  <g>
    <path class="cls-3" d="M122.86,272.54c-7.54,.25-15.15,.44-22.84,.57-7.88,.14-15.68,.21-23.41,.23"/>
    <path class="cls-4" d="M122.86,270.04c-15.41,.5-30.83,.77-46.25,.8-3.22,0-3.22,5.01,0,5,15.42-.03,30.84-.3,46.25-.8,3.21-.1,3.22-5.1,0-5h0Z"/>
  </g>
  <path class="cls-4" d="M126.29,436.43c-.34,.29-.68,.57-1.02,.84-.11,.09-.23,.18-.34,.27-.3,.24,.49-.37-.01,0-.27,.2-.54,.41-.82,.61-1.27,.93-2.59,1.79-3.94,2.58-3.54,2.08-7.32,3.66-11.31,4.66-9.2,2.31-19.03,1.15-27.52-3.05-1.75-.86-3.44-1.84-5.06-2.91-.67-.44-1.33-.9-1.98-1.38-.25-.18-.49-.37-.74-.56,.57,.43-.23-.18-.36-.29-1.05-.84-2.51-1.03-3.54,0-.87,.87-1.06,2.69,0,3.54,6.21,4.98,13.53,8.62,21.4,10.05,10.42,1.9,21.1,.03,30.38-5.04,2.99-1.64,5.8-3.61,8.4-5.8,1.03-.87,.9-2.64,0-3.54-1.02-1.02-2.5-.87-3.54,0h0Z"/>
  <g>
    <circle class="cls-4" cx="76.36" cy="60.15" r="7.87"/>
    <circle class="cls-4" cx="122.86" cy="59.1" r="7.87"/>
  </g>
  <g>
    <circle class="cls-4" cx="76.49" cy="228.68" r="7.87"/>
    <circle class="cls-4" cx="122.99" cy="227.64" r="7.87"/>
  </g>
  <g>
    <circle class="cls-4" cx="76.49" cy="391.13" r="7.87"/>
    <circle class="cls-4" cx="122.99" cy="390.09" r="7.87"/>
  </g>
</svg>